<svg width="15" height="16" viewBox="0 0 15 16" fill="none" xmlns="http://www.w3.org/2000/svg">
<path fill-rule="evenodd" clip-rule="evenodd" d="M5.60352 2.5601C5.60352 2.26393 5.83536 2.0501 6.08924 2.0501H8.76066C9.01454 2.0501 9.24638 2.26393 9.24638 2.5601V3.3251H5.60352V2.5601ZM3.90352 3.3251V2.5601C3.90352 1.35405 4.86773 0.350098 6.08924 0.350098H8.76066C9.98218 0.350098 10.9464 1.35405 10.9464 2.5601V3.3251H11.4929C11.6472 3.16773 11.8622 3.0701 12.1 3.0701C12.3377 3.0701 12.5527 3.16773 12.707 3.3251H13.8C14.2694 3.3251 14.65 3.70566 14.65 4.1751C14.65 4.64454 14.2694 5.0251 13.8 5.0251H12.95V13.4401C12.95 14.6461 11.9857 15.6501 10.7642 15.6501H4.08566C2.86415 15.6501 1.89995 14.6461 1.89995 13.4401V5.0251H1.04995C0.580509 5.0251 0.199951 4.64454 0.199951 4.1751C0.199951 3.70566 0.580509 3.3251 1.04995 3.3251H2.14293C2.2972 3.16773 2.51217 3.0701 2.74995 3.0701C2.98773 3.0701 3.2027 3.16773 3.35697 3.3251H3.90352ZM3.59995 5.0251V13.4401C3.59995 13.7363 3.83179 13.9501 4.08566 13.9501H10.7642C11.0181 13.9501 11.25 13.7363 11.25 13.4401V5.0251H3.59995Z" fill="#F2135D"/>
</svg>
